<svg id="Layer_1" enable-background="new 0 0 512.05 512.05" height="512" viewBox="0 0 512.05 512.05" width="512" xmlns="http://www.w3.org/2000/svg"><path d="m401.041 173.551c-14.161-7.063-30.812-5.536-43.453 3.985l-.522.394-20.287 17.467c-8.463-35.093-40.124-61.243-77.779-61.243h-85c-44.112 0-80 35.888-80 80v84c0 44.112 35.888 80 80 80h85c37.952 0 69.815-26.563 77.975-62.074l19.596 16.872 1.017.819c27.165 20.592 66.535.872 66.412-33.122v-89.99c0-15.826-8.797-30.045-22.959-37.108zm-102.041 124.602c0 22.056-17.944 40-40 40h-85c-22.056 0-40-17.944-40-40v-84c0-22.056 17.944-40 40-40h85c22.056 0 40 17.944 40 40zm85 2.495c0 .383 0 .907-.812 1.312-.578.287-.957.209-1.237.059l-42.951-36.981v-18.77l42.951-36.981c.28-.153.659-.229 1.237.059.812.405.812.93.812 1.312zm-180-76.495c0 11.046-8.954 20-20 20-26.53-1.054-26.522-38.951 0-40 11.046 0 20 8.954 20 20zm308 32c0 50.53-14.999 99.674-43.374 142.116-6.139 9.183-18.559 11.648-27.742 5.51-9.183-6.139-11.65-18.56-5.511-27.742 23.962-35.84 36.627-77.295 36.627-119.884-11.838-286.507-420.163-286.512-432 .002-1.433 166.34 186.388 272.138 327.739 184.889 9.445-5.72 21.744-2.702 27.467 6.747 5.723 9.447 2.704 21.745-6.744 27.469-97.686 60.74-233.244 44.7-313.481-38.089-160.525-160.85-46.195-436.803 181.021-437.017 137.594-2.838 258.849 118.393 255.998 255.999z"/></svg>